<svg xmlns="http://www.w3.org/2000/svg" viewBox="0 0 24 24" id="firefox">
  <defs>
    <linearGradient id="b" x1="12.78" x2="10.45" y1="366.34" y2="373.98" gradientTransform="matrix(1 0 0 -1 0 381.23)" gradientUnits="userSpaceOnUse">
      <stop offset="0" stop-color="#666"></stop>
      <stop offset=".48" stop-color="#2c2c2c"></stop>
      <stop offset="1"></stop>
    </linearGradient>
    <linearGradient id="l" x1="14.49" x2="12.72" y1="370" y2="365.26" gradientTransform="matrix(1 0 0 -1 0 381.23)" gradientUnits="userSpaceOnUse">
      <stop offset="0" stop-color="#fff"></stop>
      <stop offset=".04" stop-color="#dbdbdb"></stop>
      <stop offset=".08" stop-color="#bababa"></stop>
      <stop offset=".13" stop-color="#a0a0a0"></stop>
      <stop offset=".18" stop-color="#8e8e8e"></stop>
      <stop offset=".23" stop-color="#838383"></stop>
      <stop offset=".28" stop-color="gray"></stop>
      <stop offset=".39" stop-color="#7a7a7a"></stop>
      <stop offset=".52" stop-color="#6a6a6a"></stop>
      <stop offset=".68" stop-color="#505050"></stop>
      <stop offset=".84" stop-color="#2c2c2c"></stop>
      <stop offset="1"></stop>
    </linearGradient>
    <linearGradient id="d" x1="-8967.74" x2="-8964.27" y1="7261.61" y2="7262.49" gradientTransform="matrix(1.22 .12 .12 -1.22 10046.87 9965.33)" gradientUnits="userSpaceOnUse">
      <stop offset="0" stop-color="gray"></stop>
      <stop offset=".47" stop-color="gray"></stop>
      <stop offset=".49" stop-color="#838383"></stop>
      <stop offset=".68" stop-color="#b8b8b8"></stop>
      <stop offset=".83" stop-color="#dedede"></stop>
      <stop offset=".94" stop-color="#f6f6f6"></stop>
      <stop offset="1" stop-color="#fff"></stop>
    </linearGradient>
    <linearGradient id="f" x1="60.67" x2="60" y1="1608.78" y2="1610.49" gradientTransform="matrix(.99 .1 .1 -.99 -213.3 1603.84)" gradientUnits="userSpaceOnUse">
      <stop offset="0" stop-color="#999"></stop>
      <stop offset="1"></stop>
    </linearGradient>
    <linearGradient id="h" x1="-258.84" x2="-257.69" y1="5.85" y2="4.55" gradientTransform="matrix(.99 .1 .1 -.99 265.83 43.43)" gradientUnits="userSpaceOnUse">
      <stop offset=".01" stop-color="gray"></stop>
      <stop offset=".48" stop-color="gray"></stop>
      <stop offset="1"></stop>
    </linearGradient>
    <linearGradient id="j" x1="-256.67" x2="-256.67" y1="3.59" y2="4.5" gradientTransform="matrix(.99 .1 .1 -.99 265.83 43.43)" gradientUnits="userSpaceOnUse">
      <stop offset="0" stop-color="#fff"></stop>
      <stop offset=".08" stop-color="#cfcfcf"></stop>
      <stop offset=".21" stop-color="#909090"></stop>
      <stop offset=".33" stop-color="#5c5c5c"></stop>
      <stop offset=".45" stop-color="#343434"></stop>
      <stop offset=".56" stop-color="#171717"></stop>
      <stop offset=".67" stop-color="#060606"></stop>
      <stop offset=".77"></stop>
    </linearGradient>
    <linearGradient id="p" x1="12.78" x2="10.45" y1="366.34" y2="373.98" gradientTransform="matrix(1 0 0 -1 0 381.23)" gradientUnits="userSpaceOnUse">
      <stop offset="0" stop-color="#000f43"></stop>
      <stop offset=".48" stop-color="#001962"></stop>
      <stop offset="1" stop-color="#002079"></stop>
    </linearGradient>
    <linearGradient id="w" x1="-8967.74" x2="-8964.27" y1="7261.61" y2="7262.49" gradientTransform="matrix(1.22 .12 .12 -1.22 10046.87 9965.33)" gradientUnits="userSpaceOnUse">
      <stop offset="0" stop-color="#c42482"></stop>
      <stop offset=".47" stop-color="#ff272d"></stop>
      <stop offset=".49" stop-color="#ff2c2c"></stop>
      <stop offset=".68" stop-color="#ff7a1a"></stop>
      <stop offset=".83" stop-color="#ffb20d"></stop>
      <stop offset=".94" stop-color="#ffd605"></stop>
      <stop offset="1" stop-color="#ffe302"></stop>
    </linearGradient>
    <linearGradient id="y" x1="60.67" x2="60" y1="1608.78" y2="1610.49" gradientTransform="matrix(.99 .1 .1 -.99 -213.3 1603.84)" gradientUnits="userSpaceOnUse">
      <stop offset="0" stop-color="#891551"></stop>
      <stop offset="1" stop-color="#c42482"></stop>
    </linearGradient>
    <linearGradient id="A" x1="-258.84" x2="-257.69" y1="5.85" y2="4.55" gradientTransform="matrix(.99 .1 .1 -.99 265.83 43.43)" gradientUnits="userSpaceOnUse">
      <stop offset=".01" stop-color="#891551"></stop>
      <stop offset=".48" stop-color="#ff272d"></stop>
      <stop offset="1" stop-color="#ff272d"></stop>
    </linearGradient>
    <linearGradient id="C" x1="-256.67" x2="-256.67" y1="3.59" y2="4.5" gradientTransform="matrix(.99 .1 .1 -.99 265.83 43.43)" gradientUnits="userSpaceOnUse">
      <stop offset="0" stop-color="#c42482"></stop>
      <stop offset=".08" stop-color="#c42482"></stop>
      <stop offset=".21" stop-color="#c42482"></stop>
      <stop offset=".33" stop-color="#c42482"></stop>
      <stop offset=".45" stop-color="#c42482"></stop>
      <stop offset=".56" stop-color="#c42482"></stop>
      <stop offset=".67" stop-color="#c42482"></stop>
      <stop offset=".77" stop-color="#c42482"></stop>
    </linearGradient>
    <linearGradient id="D" x1="13.75" x2="17.48" y1="374.79" y2="366.45" gradientTransform="matrix(1 0 0 -1 0 381.23)" gradientUnits="userSpaceOnUse">
      <stop offset="0" stop-color="#fff14f"></stop>
      <stop offset=".27" stop-color="#ffee4c"></stop>
      <stop offset=".45" stop-color="#ffe643"></stop>
      <stop offset=".61" stop-color="#ffd834"></stop>
      <stop offset=".76" stop-color="#ffc41e"></stop>
      <stop offset=".89" stop-color="#ffab02"></stop>
      <stop offset=".9" stop-color="#ffa900"></stop>
      <stop offset=".95" stop-color="#ffa000"></stop>
      <stop offset="1" stop-color="#ff9100"></stop>
    </linearGradient>
    <linearGradient id="F" x1="14.49" x2="12.72" y1="370" y2="365.26" gradientTransform="matrix(1 0 0 -1 0 381.23)" gradientUnits="userSpaceOnUse">
      <stop offset="0" stop-color="#ff8e00"></stop>
      <stop offset=".04" stop-color="#ff8e00"></stop>
      <stop offset=".08" stop-color="#ff8e00"></stop>
      <stop offset=".13" stop-color="#ff8e00"></stop>
      <stop offset=".18" stop-color="#ff8e00"></stop>
      <stop offset=".23" stop-color="#ff8e00"></stop>
      <stop offset=".28" stop-color="#ff8e00"></stop>
      <stop offset=".39" stop-color="#ff8e00"></stop>
      <stop offset=".52" stop-color="#ff8e00"></stop>
      <stop offset=".68" stop-color="#ff8e00"></stop>
      <stop offset=".84" stop-color="#ff8e00"></stop>
      <stop offset="1" stop-color="#ff8e00"></stop>
    </linearGradient>
    <radialGradient id="m" cx="-16181.83" cy="8901.66" r="6.32" gradientTransform="matrix(.66 .03 .04 -.97 10348.88 9155.53)" gradientUnits="userSpaceOnUse">
      <stop offset=".04" stop-color="#ffea00"></stop>
      <stop offset=".12" stop-color="#ffde00"></stop>
      <stop offset=".25" stop-color="#ffbf00"></stop>
      <stop offset=".43" stop-color="#ff8e00"></stop>
      <stop offset=".77" stop-color="#ff272d"></stop>
      <stop offset=".87" stop-color="#e0255a"></stop>
      <stop offset=".95" stop-color="#cc2477"></stop>
      <stop offset="1" stop-color="#c42482"></stop>
    </radialGradient>
    <radialGradient id="n" cx="-8047.48" cy="8512.22" r="11.1" gradientTransform="matrix(1.06 0 0 -1.06 8584.84 9073.87)" gradientUnits="userSpaceOnUse">
      <stop offset="0" stop-color="#00ccda"></stop>
      <stop offset=".22" stop-color="#0083ff"></stop>
      <stop offset=".26" stop-color="#007af9"></stop>
      <stop offset=".33" stop-color="#0060e8"></stop>
      <stop offset=".33" stop-color="#005fe7"></stop>
      <stop offset=".44" stop-color="#2639ad"></stop>
      <stop offset=".52" stop-color="#401e84"></stop>
      <stop offset=".57" stop-color="#4a1475"></stop>
    </radialGradient>
    <radialGradient id="q" cx="-9085.92" cy="7293.81" r="3.74" gradientTransform="matrix(1.06 .11 .11 -1.06 8866.94 8714.29)" gradientUnits="userSpaceOnUse">
      <stop offset="0" stop-color="#ffea00"></stop>
      <stop offset=".5" stop-color="#ff272d"></stop>
      <stop offset="1" stop-color="#c42482"></stop>
    </radialGradient>
    <radialGradient id="r" cx="-9086.26" cy="7297.4" r="6.25" gradientTransform="matrix(1.06 .11 .11 -1.06 8866.94 8714.29)" gradientUnits="userSpaceOnUse">
      <stop offset="0" stop-color="#ffe900"></stop>
      <stop offset=".16" stop-color="#ffaf0e"></stop>
      <stop offset=".32" stop-color="#ff7a1b"></stop>
      <stop offset=".47" stop-color="#ff4e26"></stop>
      <stop offset=".62" stop-color="#ff2c2e"></stop>
      <stop offset=".76" stop-color="#ff1434"></stop>
      <stop offset=".89" stop-color="#ff0538"></stop>
      <stop offset="1" stop-color="#ff0039"></stop>
    </radialGradient>
    <radialGradient id="s" cx="-9085.38" cy="7291.61" r="5.74" gradientTransform="matrix(1.06 .11 .11 -1.06 8866.94 8714.29)" gradientUnits="userSpaceOnUse">
      <stop offset="0" stop-color="#ff272d"></stop>
      <stop offset=".5" stop-color="#c42482"></stop>
      <stop offset=".99" stop-color="#620700"></stop>
    </radialGradient>
    <radialGradient id="t" cx="-136.43" cy="426.75" r="10.97" gradientTransform="matrix(.87 0 0 -.87 133.52 381.83)" gradientUnits="userSpaceOnUse">
      <stop offset=".16" stop-color="#ffea00"></stop>
      <stop offset=".23" stop-color="#ffde00"></stop>
      <stop offset=".36" stop-color="#ffbf00"></stop>
      <stop offset=".54" stop-color="#ff8e00"></stop>
      <stop offset=".76" stop-color="#ff272d"></stop>
      <stop offset=".8" stop-color="#f92433"></stop>
      <stop offset=".84" stop-color="#e91c45"></stop>
      <stop offset=".89" stop-color="#cf0e62"></stop>
      <stop offset=".94" stop-color="#b5007f"></stop>
    </radialGradient>
    <radialGradient id="u" cx="-137.25" cy="432.26" r="12.96" gradientTransform="matrix(.87 0 0 -.87 133.52 381.83)" gradientUnits="userSpaceOnUse">
      <stop offset=".28" stop-color="#ffea00"></stop>
      <stop offset=".4" stop-color="#fd0"></stop>
      <stop offset=".63" stop-color="#ffba00"></stop>
      <stop offset=".86" stop-color="#ff9100"></stop>
      <stop offset=".93" stop-color="#ff6711"></stop>
      <stop offset=".99" stop-color="#ff4a1d"></stop>
    </radialGradient>
    <filter id="a" width="10.52" height="11.16" x="6.75" y="6.5" color-interpolation-filters="sRGB" filterUnits="userSpaceOnUse">
      <feFlood flood-color="#fff" result="bg"></feFlood>
      <feBlend in="SourceGraphic" in2="bg"></feBlend>
    </filter>
    <filter id="c" width="1.64" height="1.87" x="10.37" y="9.12" color-interpolation-filters="sRGB" filterUnits="userSpaceOnUse">
      <feFlood flood-color="#fff" result="bg"></feFlood>
      <feBlend in="SourceGraphic" in2="bg"></feBlend>
    </filter>
    <filter id="e" width="1.33" height="1.97" x="7.19" y="7.3" color-interpolation-filters="sRGB" filterUnits="userSpaceOnUse">
      <feFlood flood-color="#fff" result="bg"></feFlood>
      <feBlend in="SourceGraphic" in2="bg"></feBlend>
    </filter>
    <filter id="g" width="2.54" height="3.43" x="8.67" y="11.49" color-interpolation-filters="sRGB" filterUnits="userSpaceOnUse">
      <feFlood flood-color="#fff" result="bg"></feFlood>
      <feBlend in="SourceGraphic" in2="bg"></feBlend>
    </filter>
    <filter id="i" width="3.68" height="1.28" x="9.06" y="12.88" color-interpolation-filters="sRGB" filterUnits="userSpaceOnUse">
      <feFlood flood-color="#fff" result="bg"></feFlood>
      <feBlend in="SourceGraphic" in2="bg"></feBlend>
    </filter>
    <filter id="k" width="6.08" height="6.34" x="10.13" y="10.78" color-interpolation-filters="sRGB" filterUnits="userSpaceOnUse">
      <feFlood flood-color="#fff" result="bg"></feFlood>
      <feBlend in="SourceGraphic" in2="bg"></feBlend>
    </filter>
    <mask id="o" width="10.52" height="11.16" x="6.75" y="6.5" maskUnits="userSpaceOnUse">
      <g filter="url(#a)" mask="url(#g)">
        <path fill="url(#b)" d="M16.07 15.8a2.67 2.67 0 0 1-.36.22c.16-.25.32-.5.46-.77a2.72 2.72 0 0 0 .31-.38l.14-.24a5.31 5.31 0 0 0 .65-2.35v-.07a3.14 3.14 0 0 0-.07-.68s0 0 0 .07A2.35 2.35 0 0 1 17 13a4.73 4.73 0 0 0 0-1.84 7.31 7.31 0 0 0-.41-1.16 3.89 3.89 0 0 0-.95-1.31c-.3-.37-.58-.62-.73-.78a2.27 2.27 0 0 1-.5-.74c-.05 0-.65-.61-.69-.63A3.56 3.56 0 0 0 13 9.36a3 3 0 0 0 1.1 1.42 1.89 1.89 0 0 1 .4.94 3.36 3.36 0 0 1-.2 1.92A2.54 2.54 0 0 1 12.48 15a2.21 2.21 0 0 1-2.16-.79 1.84 1.84 0 0 0 1.57-.06c.39-.23.62-.41.8-.34s.34-.13.21-.34a1 1 0 0 0-1-.42c-.39.06-.74.36-1.24.07l-.09-.06h.07a2.7 2.7 0 0 1-.31-.21h.06c-.47-.39-.41-.65-.39-.82a.44.44 0 0 1 .24-.36l.11.06v-.09l.25.14a.27.27 0 0 1 .11.12s0 0 0-.07a.36.36 0 0 0-.12-.16.71.71 0 0 1 .14.1.77.77 0 0 0 .06-.34v-.19c0-.04 0-.05 0 0v-.1c0-.14.83-.49.89-.53a.85.85 0 0 0 .24-.26.74.74 0 0 0 .08-.32c0-.1 0-.18-.85-.26a.54.54 0 0 1-.42-.33.2.2 0 0 0 0-.08v-.11a1.9 1.9 0 0 1 .68-.93s-.07 0-.06 0l.18-.08s-.13-.08-.27-.07a.84.84 0 0 0-.26.07s.14-.07.11-.07a1.36 1.36 0 0 0-.52.22.13.13 0 0 1 0-.06.89.89 0 0 0-.33.29v-.04a1.29 1.29 0 0 0-.16.17 2 2 0 0 0-1.2-.11c-.07-.08-.11 0-.28-.39-.28.22-.65.47-.83.65-.08 0-.07.07-.08.46v.09a2.07 2.07 0 0 0-.27.42 6.27 6.27 0 0 0-.59 1.6 4.37 4.37 0 0 1 .31-.61 6.34 6.34 0 0 0-.35 2.08c0-.21.09-.41.15-.62a5.76 5.76 0 0 0 .43 2.46A5.64 5.64 0 0 0 8 15.94a5.5 5.5 0 0 0 8.12-.14Z" style="mix-blend-mode:multiply"></path>
      </g>
    </mask>
    <mask id="v" width="1.64" height="1.87" x="10.37" y="9.12" maskUnits="userSpaceOnUse">
      <g filter="url(#c)" mask="url(#j)">
        <path fill="url(#d)" d="M12 9.89c0-.1 0-.17-.93-.26a.66.66 0 0 1-.55-.51 2.52 2.52 0 0 0-.15 1.12 2.06 2.06 0 0 0 .29.75 4.22 4.22 0 0 1 1-.48.81.81 0 0 0 .34-.62Z" style="mix-blend-mode:multiply"></path>
      </g>
    </mask>
    <mask id="x" width="1.33" height="1.97" x="7.19" y="7.3" maskUnits="userSpaceOnUse">
      <g filter="url(#e)" mask="url(#m)">
        <path fill="url(#f)" d="M8.12 7.91A1.67 1.67 0 0 1 8 7.3a.67.67 0 0 0-.27.35l-.06.11v-.09a1 1 0 0 0-.11.15.53.53 0 0 0 0 .15V7.9a3.07 3.07 0 0 0-.36 1.37 2.77 2.77 0 0 1 1.32-.81 1.52 1.52 0 0 1-.4-.55Z" style="mix-blend-mode:multiply"></path>
      </g>
    </mask>
    <mask id="z" width="2.54" height="3.43" x="8.67" y="11.49" maskUnits="userSpaceOnUse">
      <g filter="url(#g)" mask="url(#p)">
        <path fill="url(#h)" d="M10.45 14.78c-.85-.36-1.81-.87-1.78-2a1.15 1.15 0 0 1 1.43-1.23.6.6 0 0 0-.24.22.66.66 0 0 0 .14.74c.45.49-.93 1.17 1.2 2.44a2.08 2.08 0 0 1-.75-.13Z" style="mix-blend-mode:multiply"></path>
      </g>
    </mask>
    <mask id="B" width="3.68" height="1.28" x="9.06" y="12.88" maskUnits="userSpaceOnUse">
      <g filter="url(#i)" mask="url(#s)">
        <path fill="url(#j)" d="M10.15 14a2.31 2.31 0 0 0 1.73 0c.28-.16.64-.41.86-.35a1.71 1.71 0 0 0-.51-.12h-.29a2.05 2.05 0 0 1-.34.07l.1-.05a1.08 1.08 0 0 1-.19 0h-.12a3.86 3.86 0 0 1-2.32-.68c-.09.3.41.9 1.08 1.14Z" style="mix-blend-mode:multiply"></path>
      </g>
    </mask>
    <mask id="E" width="6.08" height="6.34" x="10.13" y="10.78" maskUnits="userSpaceOnUse">
      <g filter="url(#k)" mask="url(#v)">
        <path fill="url(#l)" d="M15.93 12.53a4.81 4.81 0 0 0-1.52-1.75c.06.09.07.12.11.17a3.23 3.23 0 0 1 .64 3.2c-.93 2.83-4.64 1.5-5 1.12.15 1.64 2.9 2.43 4.69 1.36a3.64 3.64 0 0 0 1.08-4.1Z" style="mix-blend-mode:multiply"></path>
      </g>
    </mask>
  </defs>
  <g>
    <path fill="none" d="M0 0h24v24H0z"></path>
    <path fill="#d9edff" d="M1 12C1 4 4 1 12 1s11 3 11 11-3 11-11 11S1 20 1 12"></path>
    <path fill="url(#m)" d="M15.58 7.12A2 2 0 0 0 15.45 9c.29.77.75.61 1 1.4a6.35 6.35 0 0 1 .2 2.44s.45 1.3.76-.08c.73-2.59-1.83-5-1.83-5.64Z"></path>
    <path fill="url(#n)" d="M12 17.89a5.44 5.44 0 1 0-5.41-5.44A5.43 5.43 0 0 0 12 17.89Z"></path>
    <g mask="url(#o)">
      <path fill="url(#p)" d="M16.07 15.8a2.67 2.67 0 0 1-.36.22c.16-.25.32-.5.46-.77a2.72 2.72 0 0 0 .31-.38l.14-.24a5.31 5.31 0 0 0 .65-2.35v-.07a3.14 3.14 0 0 0-.07-.68s0 0 0 .07A2.35 2.35 0 0 1 17 13a4.73 4.73 0 0 0 0-1.84 7.31 7.31 0 0 0-.41-1.16 3.89 3.89 0 0 0-.95-1.31c-.3-.37-.58-.62-.73-.78a2.27 2.27 0 0 1-.5-.74c-.05 0-.65-.61-.69-.63A3.56 3.56 0 0 0 13 9.36a3 3 0 0 0 1.1 1.42 1.89 1.89 0 0 1 .4.94 3.36 3.36 0 0 1-.2 1.92A2.54 2.54 0 0 1 12.48 15a2.21 2.21 0 0 1-2.16-.79 1.84 1.84 0 0 0 1.57-.06c.39-.23.62-.41.8-.34s.34-.13.21-.34a1 1 0 0 0-1-.42c-.39.06-.74.36-1.24.07l-.09-.06h.07a2.7 2.7 0 0 1-.31-.21h.06c-.47-.39-.41-.65-.39-.82a.44.44 0 0 1 .24-.36l.11.06v-.09l.25.14a.27.27 0 0 1 .11.12s0 0 0-.07a.36.36 0 0 0-.12-.16.71.71 0 0 1 .14.1.77.77 0 0 0 .06-.34v-.19c0-.04 0-.05 0 0v-.1c0-.14.83-.49.89-.53a.85.85 0 0 0 .24-.26.74.74 0 0 0 .08-.32c0-.1 0-.18-.85-.26a.54.54 0 0 1-.42-.33.2.2 0 0 0 0-.08v-.11a1.9 1.9 0 0 1 .68-.93s-.07 0-.06 0l.18-.08s-.13-.08-.27-.07a.84.84 0 0 0-.26.07s.14-.07.11-.07a1.36 1.36 0 0 0-.52.22.13.13 0 0 1 0-.06.89.89 0 0 0-.33.29v-.04a1.29 1.29 0 0 0-.16.17 2 2 0 0 0-1.2-.11c-.07-.08-.11 0-.28-.39-.28.22-.65.47-.83.65-.08 0-.07.07-.08.46v.09a2.07 2.07 0 0 0-.27.42 6.27 6.27 0 0 0-.59 1.6 4.37 4.37 0 0 1 .31-.61 6.34 6.34 0 0 0-.35 2.08c0-.21.09-.41.15-.62a5.76 5.76 0 0 0 .43 2.46A5.64 5.64 0 0 0 8 15.94a5.5 5.5 0 0 0 8.12-.14Z"></path>
    </g>
    <path fill="url(#q)" d="M14.86 16.57c2-.23 2.86-2.28 1.74-2.32s-2.68 2.43-1.74 2.32Z"></path>
    <path fill="url(#r)" d="M16.74 13.83a2.45 2.45 0 0 0 1-2.51 5.56 5.56 0 0 0-.89 1.59c-.34.97-.93 1.4-.11.92Z"></path>
    <path fill="url(#s)" d="M12.4 17.59c1.91.6 3.54-.9 2.53-1.4s-3.43 1.11-2.53 1.4Z"></path>
    <path fill="url(#t)" d="M16.88 14.56c.05-.06.11-.27.16-.36a2 2 0 0 0 .34-1 4.87 4.87 0 0 0 .06-2.2 4.58 4.58 0 0 0-.92-1.92c-.39-.44-.11-.3-.49-.62s-.66-.73-.84-.88C13.92 6.53 14 6.3 14 6.26a1 1 0 0 1 0-.11A3.47 3.47 0 0 0 13.09 8a2.81 2.81 0 0 0 .6 2.05 4.4 4.4 0 0 0 .72.71 2.76 2.76 0 0 1 .48 1.58A2.68 2.68 0 0 1 12.21 15a2.46 2.46 0 0 1-.6-.07 2.16 2.16 0 0 1-1.3-.72 1.33 1.33 0 0 1-.17-.24 2.24 2.24 0 0 0 1.74 0c.42-.24.68-.41.89-.34s.37-.13.22-.34a1.12 1.12 0 0 0-1.07-.42c-.43.07-.81.37-1.37.08l-.1-.07h.08a2.47 2.47 0 0 1-.35-.21h.07c-.52-.38-.45-.64-.43-.8a.46.46 0 0 1 .26-.37l.13.07a.58.58 0 0 1-.05-.09 1.91 1.91 0 0 1 .28.15.39.39 0 0 1 .13.11s0 0 0-.07 0-.09-.13-.15a.7.7 0 0 1 .16.1.77.77 0 0 0 .06-.34v-.19c0-.04 0 0 0 0a.12.12 0 0 0 0-.09 4.75 4.75 0 0 1 1-.53.88.88 0 0 0 .26-.25.61.61 0 0 0 .08-.33c0-.06 0-.11-.25-.17a6 6 0 0 0-.69-.09.58.58 0 0 1-.46-.32v-.19a1.89 1.89 0 0 1 .74-.93s-.07 0 0 0a1.19 1.19 0 0 1 .2-.08S11.27 8 11.11 8a.64.64 0 0 0-.29.07S11 8 11 8a2 2 0 0 0-.58.22.07.07 0 0 1 0-.05.79.79 0 0 0-.36.28V8.4a1.45 1.45 0 0 0-.18.17 2.39 2.39 0 0 0-1.32-.11 1.53 1.53 0 0 1-.41-.55A1.5 1.5 0 0 1 8 7.3a.64.64 0 0 0-.28.35v.11-.09c0 .01-.08.09-.1.15s0 .08-.06.14V7.9a2.39 2.39 0 0 0-.15.37 3.18 3.18 0 0 0-.16.91v.09a2.37 2.37 0 0 0-.31.41 6.13 6.13 0 0 0-.65 1.59 4.59 4.59 0 0 1 .35-.61 5.64 5.64 0 0 0-.39 2.07 4.24 4.24 0 0 1 .17-.61 5.11 5.11 0 0 0 .46 2.43 5.77 5.77 0 0 0 2.24 2.54 5.07 5.07 0 0 0 1.31.62l.18.07h-.05a5.72 5.72 0 0 0 1.69.25c2.14 0 2.77-.86 2.77-.86l.09-.09a2.2 2.2 0 0 1-1.4.32c.49-.15.82-.27 1.44-.51l.23-.09h.05a4.24 4.24 0 0 0 .86-.53 2.17 2.17 0 0 0 .84-1.32.93.93 0 0 1-.13.05 1.7 1.7 0 0 1-.91.74 7.85 7.85 0 0 0 .52-.76 4.17 4.17 0 0 0 .27-.42Z"></path>
    <path fill="url(#u)" d="M16.11 15.77a4.24 4.24 0 0 0 .67-1 5.56 5.56 0 0 0 .59-4.16 5.79 5.79 0 0 0-1.78-2.7C14.36 6.8 14 6.3 14 6a3.55 3.55 0 0 0-.8 3.22c.61 1.65 1.87 1.59 2.7 3.31 1 2-.79 4.22-2.25 4.84.09 0 3.25-.73 3.42-2.55.02.04-.07.54-.96.95Z"></path>
    <g mask="url(#v)">
      <path fill="url(#w)" d="M12 9.89c0-.1 0-.17-.93-.26a.66.66 0 0 1-.55-.51 2.52 2.52 0 0 0-.15 1.12 2.06 2.06 0 0 0 .29.75 4.22 4.22 0 0 1 1-.48.81.81 0 0 0 .34-.62Z"></path>
    </g>
    <g mask="url(#x)">
      <path fill="url(#y)" d="M8.12 7.91A1.67 1.67 0 0 1 8 7.3a.67.67 0 0 0-.27.35l-.06.11v-.09a1 1 0 0 0-.11.15.53.53 0 0 0 0 .15V7.9a3.07 3.07 0 0 0-.36 1.37 2.77 2.77 0 0 1 1.32-.81 1.52 1.52 0 0 1-.4-.55Z"></path>
    </g>
    <g mask="url(#z)">
      <path fill="url(#A)" d="M10.45 14.78c-.85-.36-1.81-.87-1.78-2a1.15 1.15 0 0 1 1.43-1.23.6.6 0 0 0-.24.22.66.66 0 0 0 .14.74c.45.49-.93 1.17 1.2 2.44a2.08 2.08 0 0 1-.75-.13Z"></path>
    </g>
    <g mask="url(#B)">
      <path fill="url(#C)" d="M10.15 14a2.31 2.31 0 0 0 1.73 0c.28-.16.64-.41.86-.35a1.71 1.71 0 0 0-.51-.12h-.29a2.05 2.05 0 0 1-.34.07l.1-.05a1.08 1.08 0 0 1-.19 0h-.12a3.86 3.86 0 0 1-2.32-.68c-.09.3.41.9 1.08 1.14Z"></path>
    </g>
    <path fill="url(#D)" d="M16.11 15.78a5 5 0 0 0 1.64-4.47 3.62 3.62 0 0 1-.3 1.77 4.66 4.66 0 0 0-.31-3.08 6.81 6.81 0 0 0-2.29-2.61 2.48 2.48 0 0 1-.95-1.11 3.25 3.25 0 0 0-.06 3c.69 1.13 1.78 1.46 2.54 2.5 1.4 1.92-.27 4-.27 4Z"></path>
    <g mask="url(#E)">
      <path fill="url(#F)" d="M15.93 12.53a4.81 4.81 0 0 0-1.52-1.75c.06.09.07.12.11.17a3.23 3.23 0 0 1 .64 3.2c-.93 2.83-4.64 1.5-5 1.12.15 1.64 2.9 2.43 4.69 1.36a3.64 3.64 0 0 0 1.08-4.1Z"></path>
    </g>
  </g>
</svg>
